<svg width="537" height="535" viewBox="0 0 537 535" fill="none" xmlns="http://www.w3.org/2000/svg">
<path d="M434.362 245.108L533.75 110.37C537.897 104.748 536.224 96.7626 530.172 93.292L370.171 1.54196C366.379 -0.632252 361.691 -0.498548 358.026 1.88833L269.807 59.343C267.372 60.9283 264.436 61.5472 261.572 61.0788L113.081 36.7937C107.096 35.8148 101.358 39.5986 99.8863 45.4953L0.355593 444.284C-1.58583 452.062 4.69014 459.439 12.662 458.748L212.698 441.418C215.303 441.193 217.908 441.851 220.093 443.288L356.638 533.033C361.763 536.401 368.619 535.215 372.324 530.318L525.947 327.316C530.211 321.682 528.545 313.577 522.407 310.096L437.987 262.213C431.9 258.76 430.202 250.748 434.362 245.108Z" fill="#36B8CF"/>
</svg>
